<svg id="Layer_1" data-name="Layer 1" xmlns="http://www.w3.org/2000/svg" viewBox="0 0 369.11 597.16"><defs><style>.cls-1{fill:#fff;}.cls-1,.cls-2{stroke:#fff;stroke-miterlimit:10;}.cls-2{fill:none;stroke-width:60px;}</style></defs><title>ShoopingBag</title><path class="cls-1" d="M474.5,341.5c.24,53.62-.24,90.38,0,144,0,60-1,132-1,179,0,25-.95,24.28,2,34,23.85,78.66,254,54.57,313,37,7.58-2.26,18.88-6.35,29-16,22.72-21.65,22.91-55.4,23-71,.34-58.59,2-167.43,0-307" transform="translate(-472.86 -156.59)"/><path class="cls-2" d="M563.5,354.5c0-38.5-1.5-54.5,6-96,4.55-25.15,16.29-51.63,41.5-61.5,46-18,62-10,96,4,19,7.84,24.15,29.83,30.5,55.5C749,303,748,341,748,361" transform="translate(-472.86 -156.59)"/></svg>