<svg id="Layer_1" data-name="Layer 1" xmlns="http://www.w3.org/2000/svg" viewBox="0 0 800.54 208.79"><defs><style>.cls-1{fill:#fff;}.cls-2{font-size:137.83px;font-family:MicrosoftYaHei-Bold, Microsoft YaHei;font-weight:700;}</style></defs><title>tog</title><path d="M316,499c7.21,6.38,10.36,6.86,15,5,5-2,7-3.67,9-4,2.13-.36,5.93,5.92,13,29-1.42,1.17-20.3,16.26-44,9-21.17-6.49-29-25.56-30-28q-.5-26-1-52v-3H264V421h14l1-35h37v35h31v33H316v45" transform="translate(-264 -386)"/><circle cx="136" cy="96" r="55"/><circle class="cls-1" cx="136" cy="96" r="15"/><path d="M557,543V429H524v8c0,1.06.35,5.65,0,6-1.78,1.75-10.66-9.26-23-13-16.2-4.91-28.73,1.73-34,5-4.67,2.9-10,6-14,13-2,3.42-1,1,3,14,4.79,15.56,3.49,33-5,50-1,2-1,1.39-1,4,0,2,1,4.13,3,7,1.1,1.57,10.17,7.38,13,9,14,8,26,8,41,2,6.23-2.49,14.6-11.26,16-11,1.69.31,1,2.19,1,3a136.13,136.13,0,0,1-1,16,21.3,21.3,0,0,1-13,17c-13.72,5.37-28.1,5.9-41-7-6-6-15,14-18,24-2.63,8.75,12.75,11.9,18,14,15,6,35.05,7.1,52-1C542.4,578.78,557,558,557,543Z" transform="translate(-264 -386)"/><circle class="cls-1" cx="232" cy="96" r="15"/><circle cx="326.5" cy="141.5" r="12.5"/><text class="cls-2" transform="translate(339 160.95)">design</text></svg>